<?xml version="1.0" encoding="UTF-8" standalone="no"?>
<!-- Created with Inkscape (http://www.inkscape.org/) -->

<svg
   xmlns:dc="http://purl.org/dc/elements/1.1/"
   xmlns:cc="http://creativecommons.org/ns#"
   xmlns:rdf="http://www.w3.org/1999/02/22-rdf-syntax-ns#"
   xmlns:svg="http://www.w3.org/2000/svg"
   xmlns="http://www.w3.org/2000/svg"
   version="1.1"
   width="800"
   height="600"
   id="svg2">
  <defs
     id="defs4" />
  <metadata
     id="metadata7">
    <rdf:RDF>
      <cc:Work
         rdf:about="">
        <dc:format>image/svg+xml</dc:format>
        <dc:type
           rdf:resource="http://purl.org/dc/dcmitype/StillImage" />
        <dc:title></dc:title>
      </cc:Work>
    </rdf:RDF>
  </metadata>
  <g
     transform="translate(0,-452.36218)"
     id="layer1">
    <path
       d="m286.372528,557.544128c-35.673035,0 -70.289063,-6.934753 -102.886475,-20.611328c-31.479767,-13.206909 -59.75235,-32.111206 -84.03302,-56.186951c-24.28064,-24.075806 -43.345734,-52.109741 -56.665863,-83.32373c-13.793182,-32.323242 -20.78717,-66.647461 -20.78717,-102.020325c0,-32.187958 5.817413,-63.625214 17.290985,-93.440216c11.078461,-28.788971 27.086792,-55.230713 47.579559,-78.590088c41.389801,-47.179749 151.333862,-93.209137 213.341949,-102.37149l-49.606812,30.922791c-94.500519,39.805847 -212.369537,122.479218 -212.369537,243.479004c0,135.668457 111.313629,246.043579 248.135895,246.043579c136.823303,0 248.136383,-110.375122 248.136383,-246.043579c0,-120.999756 -164.869049,-240.673737 -285.369598,-258.479004l76.393188,-1.922791c67.008118,-5.837646 118.952148,41.191742 160.342468,88.372009c20.492249,23.359406 36.500519,49.801147 47.57962,78.590118c11.473022,29.814453 17.290405,61.252197 17.290405,93.440216c0,35.372864 -6.993958,69.697083 -20.78656,102.019775c-13.32019,31.213989 -32.385773,59.247986 -56.666473,83.32373c-24.28009,24.075745 -52.553223,42.980042 -84.03302,56.187012c-4.074615,1.709595 -8.180756,3.313904 -12.316559,4.812439c-4.135834,1.498535 -8.301331,2.891296 -12.494629,4.17804c-4.193298,1.286743 -8.414368,2.467285 -12.661346,3.541443c-4.246979,1.074158 -8.519897,2.041809 -12.816833,2.902588c-4.296967,0.860779 -8.61792,1.614746 -12.96106,2.261475c-4.343109,0.646729 -8.708405,1.186218 -13.093933,1.618103c-4.385559,0.431885 -8.791382,0.756165 -13.215607,0.972534c-0.55304,0.027039 -1.106323,0.052368 -1.659943,0.07605c-0.553589,0.023682 -1.107483,0.045654 -1.661652,0.065918c-0.554169,0.020264 -1.108612,0.038879 -1.66333,0.055786c-0.554718,0.016907 -1.109711,0.032104 -1.664978,0.045654c-0.555267,0.01355 -1.110809,0.025391 -1.666626,0.035522c-0.555786,0.010132 -1.111877,0.018616 -1.668213,0.025391c-0.556335,0.006775 -1.112946,0.011841 -1.66983,0.015259c-0.017426,0.000122 -0.034821,0.000244 -0.052216,0.000305c-0.017395,0.000122 -0.03479,0.000183 -0.052185,0.000305c-0.017395,0.000122 -0.03479,0.000244 -0.052216,0.000305c-0.017395,0.000122 -0.034821,0.000183 -0.052216,0.000305c-0.017395,0.000122 -0.03479,0.000183 -0.052216,0.000244c-0.017395,0.000122 -0.034821,0.000183 -0.052216,0.000244c-0.017395,0.000122 -0.03479,0.000183 -0.052216,0.000244c-0.017395,0.000122 -0.034821,0.000183 -0.052216,0.000244c-0.017395,0.000061 -0.03479,0.000122 -0.052216,0.000244c-0.017395,0.000061 -0.034821,0.000122 -0.052216,0.000183c-0.017395,0.000061 -0.03479,0.000183 -0.052216,0.000244c-0.017395,0.000061 -0.034821,0.000122 -0.052216,0.000183c-0.017395,0.000061 -0.034821,0.000122 -0.052246,0.000183c-0.017395,0.000061 -0.03479,0.000122 -0.052216,0.000183c-0.017426,0.000061 -0.034821,0.000122 -0.052216,0.000183c-0.017426,0.000061 -0.034851,0.000122 -0.052246,0.000183c-0.017395,0.000061 -0.034821,0.000122 -0.052246,0.000183c-0.017395,0.000061 -0.03479,0.000061 -0.052216,0.000122c-0.017426,0.000061 -0.034821,0.000061 -0.052216,0.000122c-0.017426,0.000061 -0.034851,0.000061 -0.052246,0.000122c-0.017395,0.000061 -0.034821,0.000061 -0.052246,0.000122c-0.017395,0.000061 -0.034821,0.000061 -0.052246,0.000122c-0.017395,0.000061 -0.034821,0.000061 -0.052246,0.000061c-0.017395,0.000061 -0.034821,0.000122 -0.052246,0.000122c-0.017395,0 -0.034821,0.000061 -0.052246,0.000061c-0.017395,0.000061 -0.034821,0.000061 -0.052246,0.000061c-0.017395,0 -0.034821,0.000061 -0.052246,0.000061c-0.017395,0.000061 -0.034821,0.000061 -0.052246,0.000061c-0.017395,0 -0.034821,0 -0.052246,0c-0.017395,0 -0.034821,0 -0.052246,0c-0.017426,0 -0.034851,0.000061 -0.052277,0.000061c-0.008698,0 -0.017426,0 -0.026123,0c-0.008698,0 -0.017426,0 -0.026123,0z"
       transform="translate(0,452.36218)"
       id="path3780"
       style="fill:none;stroke:#000000;stroke-width:1px;stroke-linecap:butt;stroke-linejoin:miter;stroke-opacity:1" />
  </g>
</svg>
